PathFileType	4	(X/Y/Z)	C:\Users\WrightLab\Desktop\Jo\P5V120.trc
DataRate	CameraRate	NumFrames	NumMarkers	Units	OrigDataRate	OrigDataStartFrame	OrigNumFrames
100.00	100.00	       18	19	mm	100.00	79	       630
Frame#	Time	Headset_Front			Headset_Back			Headset_Left			Headset_Right			Left_Shoulder			Right_Shoulder			Sternum			C7			Left Elbow			Right Elbow			Left Wrist			Right Wrist			Left ASIS			Right ASIS			S2			Left Knee			Right Knee			Left Ankle			Right Ankle			
		X1	Y1	Z1	X2	Y2	Z2	X3	Y3	Z3	X4	Y4	Z4	X5	Y5	Z5	X6	Y6	Z6	X7	Y7	Z7	X8	Y8	Z8	X9	Y9	Z9	X10	Y10	Z10	X11	Y11	Z11	X12	Y12	Z12	X13	Y13	Z13	X14	Y14	Z14	X15	Y15	Z15	X16	Y16	Z16	X17	Y17	Z17	X18	Y18	Z18	X19	Y19	Z19	

79	0.780	-344.91379	1560.20105	1052.61243	-266.55478	1454.71851	975.98523				-378.93335	1740.09912	903.87140	-502.25333	1524.15674	681.74945	-501.75461	1432.00989	1085.48010	-408.80511	1325.52527	877.12646	-613.69604	1531.56702	901.49963	-570.29150	1264.14905	569.68988	-574.15436	1173.73828	1172.01611	-364.28061	1204.30103	602.73645	-401.26385	999.57428	1187.52563	-428.28943	948.63507	710.03351	-437.54419	940.87897	999.36340	-726.33344	995.86652	804.17261	-454.85944	510.88879	632.68732	-482.38565	494.76642	1098.72742	-564.22498	111.47344	607.78876	-690.63641	234.65550	1332.32605	
80	0.790	-343.45074	1562.15271	1046.16919	-263.79718	1457.08923	970.28394				-376.62799	1741.73315	896.93719	-497.74426	1526.97217	673.54810	-500.59207	1433.39014	1078.17285	-406.26703	1326.88062	870.35132	-611.38873	1533.31921	893.22479	-564.32935	1265.71143	560.95190	-573.35352	1174.97693	1164.08325	-359.15253	1204.35791	597.70685	-401.35764	998.87671	1181.66638	-424.01065	949.97968	701.14240	-435.50189	942.56226	992.30273	-722.02240	997.08832	794.64233	-455.45038	511.58978	627.18250	-479.41745	495.49374	1086.89624	-563.55115	111.11775	606.70679	-697.34961	243.66725	1323.11340	
81	0.800	-341.40149	1564.09839	1039.74268	-262.44269	1458.95227	964.18188				-374.79633	1743.64233	890.28302	-493.65533	1527.75769	666.86212	-499.35577	1435.30969	1070.35535	-403.94366	1328.45276	863.86896	-608.99896	1534.84534	885.05872	-558.11597	1266.49719	554.84393	-571.84302	1177.32092	1156.08582	-354.04630	1204.98132	592.68280	-401.51553	999.76453	1175.93140	-419.73441	952.26129	693.11493	-433.82529	944.09998	985.84021	-717.65210	998.69354	785.52875	-456.67599	512.17633	620.99213	-477.94006	495.56967	1075.77393	-563.26117	110.85608	606.29138	-703.58130	251.59755	1311.14319	
82	0.810	-340.21704	1566.45984	1033.79065	-260.19342	1460.89160	958.99042				-372.70642	1745.39746	883.74396	-489.27811	1530.13879	659.28436	-498.13470	1437.95581	1063.34351	-401.74997	1330.14697	857.34332	-606.71436	1536.60718	877.07501	-554.35779	1268.26758	547.21301	-570.17566	1179.38867	1148.13342	-348.66211	1206.48669	587.73035	-402.57050	1000.89691	1170.53638	-415.27136	953.71027	684.92358	-433.31390	945.63153	979.24219	-712.98315	1000.33807	776.76978	-456.99249	512.34192	616.00598	-475.37473	496.24573	1064.39929	-563.27917	110.72571	606.09412	-710.04944	260.45566	1298.18433	
83	0.820	-338.45886	1568.28943	1027.76733	-257.90094	1463.57446	953.29456				-371.25354	1747.28162	877.59265	-485.04163	1530.90881	652.86249	-497.00323	1439.50671	1057.82971	-399.47018	1331.60742	850.97028	-604.19531	1538.42517	869.19653	-547.82349	1269.54810	539.86255	-568.58093	1180.05762	1141.04065	-344.29630	1207.87000	582.91351	-402.64233	1001.24310	1165.32166	-410.35880	956.04291	678.28076	-431.43649	947.96649	973.92426	-708.05914	1001.91443	768.26703	-456.78018	512.91364	611.84973	-473.20831	496.45166	1051.90588	-563.41718	110.57701	606.04425	-718.16266	268.34247	1284.64880	
84	0.830	-336.91681	1570.26685	1022.02161	-255.58597	1465.34033	948.49982				-369.39685	1748.96448	871.55444	-480.72009	1532.30139	646.49921	-495.88342	1440.30383	1049.71667	-397.44290	1333.34045	845.94287	-601.64575	1540.03259	861.60028	-542.96338	1270.66223	533.77362	-567.41071	1182.39050	1133.92310	-340.24347	1208.57703	577.96265	-402.14447	1000.76776	1159.66125	-405.70541	957.99738	672.30536	-430.55005	949.37445	968.41803	-703.07452	1003.38867	760.13458	-457.15350	512.90918	607.57782	-470.15186	497.79941	1040.46436	-563.60010	110.39606	605.98370	-725.61224	276.02170	1268.63989	
85	0.840	-335.69775	1572.18347	1016.48157	-253.49785	1468.17639	942.92871				-366.50040	1750.48267	865.40656	-476.69473	1533.51074	640.67810	-494.60117	1442.87280	1042.98999	-394.65060	1334.74829	840.27209	-599.49213	1542.13745	854.24127	-538.17261	1272.30383	526.67487	-566.33191	1184.69958	1127.11316	-336.08163	1209.26013	573.78107	-402.58917	1001.05933	1155.55530	-401.38687	959.91589	666.33002	-428.65741	951.64453	963.27911	-697.65540	1004.82019	752.42542	-457.05435	513.24542	602.97937	-466.44873	500.14777	1029.60986	-563.61255	110.20392	605.80609	-732.30670	281.97595	1251.86682	
86	0.850	-334.16968	1573.85168	1010.88245	-251.12234	1468.82349	938.31250				-365.33499	1752.31409	859.84601	-472.57587	1535.15125	634.52789	-493.01257	1445.52649	1038.67468	-392.61096	1335.97864	834.21533	-597.05310	1543.71692	847.17004	-534.72052	1273.37610	519.51813	-564.94031	1185.13306	1120.70874	-331.81931	1209.93945	569.63318	-403.38538	1001.99744	1150.49036	-397.12421	961.54376	660.56396	-427.04034	953.61090	958.14600	-692.57025	1006.47089	744.88550	-455.65143	513.25024	599.91034	-463.28070	501.78189	1017.67413	-563.63965	110.18519	605.74091	-737.79016	288.70886	1235.24048	
87	0.860	-332.68433	1575.52197	1005.60022	-249.19792	1470.65417	933.76843				-362.94217	1753.69446	854.06152	-468.79828	1536.41223	627.79913	-491.65979	1446.56226	1031.82837	-392.32993	1338.05469	829.08044	-594.80280	1545.59155	840.13074	-529.39044	1274.33484	514.07336	-563.68213	1187.02759	1115.32397	-328.06180	1211.01172	564.86780	-403.22586	1001.24866	1145.70459	-393.69147	963.48584	656.50842	-426.17862	955.47876	952.86603	-687.47290	1008.01593	737.86359	-453.79089	513.44922	596.94592	-458.42664	504.37479	1007.34430	-563.65820	110.16156	605.66589	-742.49622	293.56622	1217.35632	
88	0.870	-330.60553	1576.65076	1000.20813	-246.93742	1472.49902	927.38287				-360.68170	1754.52124	848.52228	-464.89667	1538.19458	621.94043	-490.43378	1447.88953	1027.10083	-390.37320	1337.99316	823.72314	-592.15131	1547.14600	833.35364	-525.26581	1275.38513	509.27426	-562.06171	1188.32275	1110.60205	-324.31241	1211.81775	560.18347	-402.79388	1001.24982	1141.65234	-390.32797	964.23932	652.13702	-425.20578	956.64349	948.75342	-682.82941	1009.34644	731.40118	-451.38525	513.65155	593.78644	-451.74557	506.90472	997.60083	-563.75238	110.12199	605.57288	-745.53326	296.91989	1198.47852	
89	0.880	-329.22617	1578.17725	995.23938	-245.38368	1473.94128	924.08417				-357.92249	1755.70947	842.80914	-461.16699	1539.15796	617.36060	-489.69220	1448.44495	1020.66486	-388.01547	1339.37036	817.94751	-589.71313	1548.33923	826.90771	-520.58484	1276.18066	504.47098	-560.87701	1188.23914	1104.89978	-320.06693	1212.60535	556.31488	-402.98587	1001.09930	1138.45203	-387.93253	965.65051	647.74310	-424.18750	958.75940	943.82422	-678.73547	1011.05182	725.09076	-449.18036	513.03711	592.61938	-444.87766	509.91388	989.66010	-563.75128	109.84031	605.06244	-745.54425	300.62912	1182.50781	
90	0.890	-327.82712	1579.46350	990.30225	-243.32010	1475.31482	919.72089				-355.90036	1757.01257	837.45447	-457.60266	1540.70654	611.14252	-488.12213	1450.26282	1014.83374	-386.04590	1340.14075	812.40131	-587.37689	1549.80261	820.64032	-516.02136	1277.01257	498.72870	-559.94025	1189.66089	1099.88660	-316.97260	1213.02075	551.81995	-402.34689	1001.11169	1135.20850	-386.03207	966.62451	644.10699	-423.41107	960.84479	938.82385	-674.79523	1012.57281	719.30426	-445.96509	513.55334	591.05798	-439.16705	512.02423	982.66718	-564.03735	109.57197	604.21368	-747.43842	302.41663	1164.83521	
91	0.900	-326.20728	1580.70374	985.43768	-241.15254	1475.78955	915.20782				-353.74869	1757.96509	832.39526	-454.38223	1541.67786	604.84692	-486.73029	1449.46130	1008.33252	-383.62662	1342.51038	807.84082	-584.39392	1550.51843	814.30896	-512.52753	1278.15271	492.45929	-557.53149	1190.49963	1096.13953	-312.89063	1213.38110	548.47266	-401.21326	1000.54901	1132.25635	-384.07248	967.34167	640.28613	-422.67627	962.18860	934.51312	-671.22760	1013.99170	713.81873	-442.17618	513.58960	590.54565	-433.67593	514.12433	975.71436	-563.91101	109.34402	603.41327	-747.08392	302.59949	1147.53748	
92	0.910	-324.43430	1581.66577	980.73566	-239.84688	1476.96045	912.48523				-351.04874	1758.71423	827.32141	-451.15955	1542.95447	599.39844	-485.49911	1451.37476	1002.05408	-381.17188	1342.56006	803.50793	-582.63190	1552.05505	808.69458	-508.22412	1278.57153	487.60651	-556.30920	1190.86597	1091.00220	-309.65408	1214.57214	544.60089	-400.56384	1000.04675	1129.44592	-382.54385	967.98883	635.50348	-421.66226	964.61816	929.93280	-667.86249	1015.46942	708.74481	-438.40149	513.63440	588.95929	-428.06982	517.25195	969.39679	-564.30920	109.48223	602.94458	-747.10718	303.74158	1129.95459	
93	0.920	-322.87375	1582.82422	976.17853	-238.33820	1477.05212	907.45709				-348.62692	1759.89575	822.41449	-447.80319	1544.17078	594.27673	-484.01859	1450.21582	995.67657	-379.51770	1344.35437	797.62091	-580.37897	1553.41870	803.10583	-505.09348	1280.17676	482.61896	-554.15906	1191.26929	1087.00757	-306.19705	1215.54956	540.57733	-399.40192	999.92828	1127.55859	-380.65771	968.73645	632.16205	-420.59555	965.71082	925.39429	-664.73792	1016.13959	703.57434	-435.07391	513.73108	588.87115	-423.58234	520.26984	962.84998	-564.19214	108.88291	602.97900	-746.04663	303.22992	1113.08533	
94	0.930	-321.30441	1583.89514	971.86896	-236.87346	1476.95508	902.52179				-346.16812	1760.70789	817.77972	-444.55823	1544.79761	588.97778	-482.72754	1451.35132	992.07452	-376.82022	1344.28333	792.70917	-577.96527	1554.10010	797.68677	-501.09665	1279.94250	478.50317	-551.68469	1191.56799	1082.97559	-302.74203	1215.28662	537.55542	-398.19443	999.74438	1125.81726	-379.29779	968.88702	628.75751	-420.91815	966.32410	920.86511	-662.02026	1017.80450	698.84937	-432.05392	514.44818	588.39087	-419.76651	521.82819	956.71417	-564.47131	108.63077	602.35876	-743.54327	301.21201	1096.14233	
95	0.940	-319.44153	1584.69446	967.64325	-235.96417	1477.46497	895.68036				-342.93121	1761.20483	813.06079	-441.33057	1545.54785	584.49402	-481.17096	1452.44092	988.32623	-374.47925	1346.63684	788.22339	-575.49115	1555.10205	792.44592	-498.38593	1282.19543	473.30310	-548.65137	1191.81970	1080.29797	-299.94070	1216.05701	533.29816	-397.36230	998.21686	1123.90479	-378.28503	969.02313	624.48389	-419.41528	969.05078	917.39905	-659.37964	1018.58936	694.02551	-429.12350	515.23206	586.94690	-416.54703	523.56970	950.54498	-565.00323	107.80701	602.91034	-741.01740	299.91898	1079.94287	
96	0.950	-317.91785	1585.38342	963.57642	-234.60194	1478.40540	892.71149				-339.70123	1761.61633	808.42944	-438.11206	1546.39917	579.81433	-479.54565	1451.14990	982.06549	-372.19754	1345.74963	784.13776	-572.93829	1555.24951	787.56293	-494.20261	1281.73694	469.57831	-545.81976	1192.11487	1076.70996	-297.03650	1217.00330	530.40607	-395.70407	997.59308	1122.66357	-376.47656	969.63544	621.73553	-419.44531	969.29974	913.22815	-657.02069	1019.86835	689.51495	-426.89136	515.33899	586.41852	-413.20422	526.43842	945.55292	-565.52350	107.11781	602.35522	-737.82135	297.32278	1063.38184	
